<?xml version="1.0" encoding="utf-8"?>
<!DOCTYPE svg PUBLIC "-//W3C//DTD SVG 1.1//EN" "http://www.w3.org/Graphics/SVG/1.1/DTD/svg11.dtd">
<svg version="1.1" id="Layer_1" xmlns="http://www.w3.org/2000/svg" xmlns:xlink="http://www.w3.org/1999/xlink" x="0px" y="0px"
width="1392px" height="1392px" viewBox="0 0 1392 1392" enable-background="new 0 0 1392 1392" xml:space="preserve">
<rect x="0" y="0" width="1392" height="1392" fill="rgb(255,255,255)" /><g transform="translate(96,96)"><g transform="translate(432,0) scale(0.096,0.096)"><g transform="" style="fill: rgb(0, 0, 0);">
<path  d="M470,38.5h-47c0,0-29.157,0-66.5,0c-5.711,0-11.611,0-17.63,0c-47.461,0-102.168,0-127.37,0
	C94.65,38.5,0,133.222,0,250c0,116.765,94.65,211.5,211.5,211.5c31.48,0,83.041,0,127.37,0c6.035,0,11.932,0,17.63,0
	c37.686,0,66.5,0,66.5,0h47h30v-423H470z"/>
</g></g><g transform="translate(480,0) scale(0.096,0.096)"><g transform="" style="fill: rgb(0, 0, 0);">
<path d="M288.5,38.5c-42.907,0-123.188,0-171.55,0c-23.857,0-39.95,0-39.95,0H59.5H30H0v423h30h29.5H77c0,0,16.216,0,39.95,0
	c51.332,0,137.84,0,171.55,0C405.301,461.5,500,366.8,500,250C500,133.191,405.301,38.5,288.5,38.5z"/>
</g></g><g transform="translate(576,0) scale(0.096,0.096)"><g transform="" style="fill: rgb(0, 0, 0);">
<path  d="M470,38.5h-47c0,0-29.157,0-66.5,0c-5.711,0-11.611,0-17.63,0c-47.461,0-102.168,0-127.37,0
	C94.65,38.5,0,133.222,0,250c0,116.765,94.65,211.5,211.5,211.5c31.48,0,83.041,0,127.37,0c6.035,0,11.932,0,17.63,0
	c37.686,0,66.5,0,66.5,0h47h30v-423H470z"/>
</g></g><g transform="translate(624,0) scale(0.096,0.096)"><g transform="" style="fill: rgb(0, 0, 0);">
<polygon points="250,38.5 0,38.5 0,461.5 250,461.5 500,461.5 500,38.5 "/>
</g></g><g transform="translate(672,0) scale(0.096,0.096)"><g transform="" style="fill: rgb(0, 0, 0);">
<path d="M288.5,38.5c-42.907,0-123.188,0-171.55,0c-23.857,0-39.95,0-39.95,0H59.5H30H0v423h30h29.5H77c0,0,16.216,0,39.95,0
	c51.332,0,137.84,0,171.55,0C405.301,461.5,500,366.8,500,250C500,133.191,405.301,38.5,288.5,38.5z"/>
</g></g><g transform="translate(384,48) scale(0.096,0.096)"><g transform="" style="fill: rgb(0, 0, 0);">
<path d="M250,38.5c116.813,0,211.5,94.693,211.5,211.5c0,116.813-94.687,211.5-211.5,211.5c-116.807,0-211.5-94.687-211.5-211.5
	C38.5,133.193,133.193,38.5,250,38.5z"/>
</g></g><g transform="translate(480,48) scale(0.096,0.096)"><g transform="" style="fill: rgb(0, 0, 0);">
<path d="M250,38.5c116.813,0,211.5,94.693,211.5,211.5c0,116.813-94.687,211.5-211.5,211.5c-116.807,0-211.5-94.687-211.5-211.5
	C38.5,133.193,133.193,38.5,250,38.5z"/>
</g></g><g transform="translate(624,48) scale(0.096,0.096)"><g transform="" style="fill: rgb(0, 0, 0);">
<path d="M250,38.5c116.813,0,211.5,94.693,211.5,211.5c0,116.813-94.687,211.5-211.5,211.5c-116.807,0-211.5-94.687-211.5-211.5
	C38.5,133.193,133.193,38.5,250,38.5z"/>
</g></g><g transform="translate(768,48) scale(0.096,0.096)"><g transform="" style="fill: rgb(0, 0, 0);">
<path d="M250,38.5c116.813,0,211.5,94.693,211.5,211.5c0,116.813-94.687,211.5-211.5,211.5c-116.807,0-211.5-94.687-211.5-211.5
	C38.5,133.193,133.193,38.5,250,38.5z"/>
</g></g><g transform="translate(384,96) scale(0.096,0.096)"><g transform="" style="fill: rgb(0, 0, 0);">
<path d="M250,38.5c116.813,0,211.5,94.693,211.5,211.5c0,116.813-94.687,211.5-211.5,211.5c-116.807,0-211.5-94.687-211.5-211.5
	C38.5,133.193,133.193,38.5,250,38.5z"/>
</g></g><g transform="translate(480,96) scale(0.096,0.096)"><g transform="" style="fill: rgb(0, 0, 0);">
<path d="M250,38.5c116.813,0,211.5,94.693,211.5,211.5c0,116.813-94.687,211.5-211.5,211.5c-116.807,0-211.5-94.687-211.5-211.5
	C38.5,133.193,133.193,38.5,250,38.5z"/>
</g></g><g transform="translate(576,96) scale(0.096,0.096)"><g transform="" style="fill: rgb(0, 0, 0);">
<path d="M250,38.5c116.813,0,211.5,94.693,211.5,211.5c0,116.813-94.687,211.5-211.5,211.5c-116.807,0-211.5-94.687-211.5-211.5
	C38.5,133.193,133.193,38.5,250,38.5z"/>
</g></g><g transform="translate(720,96) scale(0.096,0.096)"><g transform="" style="fill: rgb(0, 0, 0);">
<path  d="M470,38.5h-47c0,0-29.157,0-66.5,0c-5.711,0-11.611,0-17.63,0c-47.461,0-102.168,0-127.37,0
	C94.65,38.5,0,133.222,0,250c0,116.765,94.65,211.5,211.5,211.5c31.48,0,83.041,0,127.37,0c6.035,0,11.932,0,17.63,0
	c37.686,0,66.5,0,66.5,0h47h30v-423H470z"/>
</g></g><g transform="translate(768,96) scale(0.096,0.096)"><g transform="" style="fill: rgb(0, 0, 0);">
<path d="M288.5,38.5c-42.907,0-123.188,0-171.55,0c-23.857,0-39.95,0-39.95,0H59.5H30H0v423h30h29.5H77c0,0,16.216,0,39.95,0
	c51.332,0,137.84,0,171.55,0C405.301,461.5,500,366.8,500,250C500,133.191,405.301,38.5,288.5,38.5z"/>
</g></g><g transform="translate(384,144) scale(0.096,0.096)"><g transform="" style="fill: rgb(0, 0, 0);">
<path d="M250,38.5c116.813,0,211.5,94.693,211.5,211.5c0,116.813-94.687,211.5-211.5,211.5c-116.807,0-211.5-94.687-211.5-211.5
	C38.5,133.193,133.193,38.5,250,38.5z"/>
</g></g><g transform="translate(480,144) scale(0.096,0.096)"><g transform="" style="fill: rgb(0, 0, 0);">
<path  d="M470,38.5h-47c0,0-29.157,0-66.5,0c-5.711,0-11.611,0-17.63,0c-47.461,0-102.168,0-127.37,0
	C94.65,38.5,0,133.222,0,250c0,116.765,94.65,211.5,211.5,211.5c31.48,0,83.041,0,127.37,0c6.035,0,11.932,0,17.63,0
	c37.686,0,66.5,0,66.5,0h47h30v-423H470z"/>
</g></g><g transform="translate(528,144) scale(0.096,0.096)"><g transform="" style="fill: rgb(0, 0, 0);">
<path d="M288.5,38.5c-42.907,0-123.188,0-171.55,0c-23.857,0-39.95,0-39.95,0H59.5H30H0v423h30h29.5H77c0,0,16.216,0,39.95,0
	c51.332,0,137.84,0,171.55,0C405.301,461.5,500,366.8,500,250C500,133.191,405.301,38.5,288.5,38.5z"/>
</g></g><g transform="translate(624,144) scale(0.096,0.096)"><g transform="" style="fill: rgb(0, 0, 0);">
<path  d="M470,38.5h-47c0,0-29.157,0-66.5,0c-5.711,0-11.611,0-17.63,0c-47.461,0-102.168,0-127.37,0
	C94.65,38.5,0,133.222,0,250c0,116.765,94.65,211.5,211.5,211.5c31.48,0,83.041,0,127.37,0c6.035,0,11.932,0,17.63,0
	c37.686,0,66.5,0,66.5,0h47h30v-423H470z"/>
</g></g><g transform="translate(672,144) scale(0.096,0.096)"><g transform="" style="fill: rgb(0, 0, 0);">
<path d="M288.5,38.5c-42.907,0-123.188,0-171.55,0c-23.857,0-39.95,0-39.95,0H59.5H30H0v423h30h29.5H77c0,0,16.216,0,39.95,0
	c51.332,0,137.84,0,171.55,0C405.301,461.5,500,366.8,500,250C500,133.191,405.301,38.5,288.5,38.5z"/>
</g></g><g transform="translate(768,144) scale(0.096,0.096)"><g transform="" style="fill: rgb(0, 0, 0);">
<path d="M250,38.5c116.813,0,211.5,94.693,211.5,211.5c0,116.813-94.687,211.5-211.5,211.5c-116.807,0-211.5-94.687-211.5-211.5
	C38.5,133.193,133.193,38.5,250,38.5z"/>
</g></g><g transform="translate(528,192) scale(0.096,0.096)"><g transform="" style="fill: rgb(0, 0, 0);">
<path d="M250,38.5c116.813,0,211.5,94.693,211.5,211.5c0,116.813-94.687,211.5-211.5,211.5c-116.807,0-211.5-94.687-211.5-211.5
	C38.5,133.193,133.193,38.5,250,38.5z"/>
</g></g><g transform="translate(624,192) scale(0.096,0.096)"><g transform="" style="fill: rgb(0, 0, 0);">
<path d="M250,38.5c116.813,0,211.5,94.693,211.5,211.5c0,116.813-94.687,211.5-211.5,211.5c-116.807,0-211.5-94.687-211.5-211.5
	C38.5,133.193,133.193,38.5,250,38.5z"/>
</g></g><g transform="translate(768,192) scale(0.096,0.096)"><g transform="" style="fill: rgb(0, 0, 0);">
<path d="M250,38.5c116.813,0,211.5,94.693,211.5,211.5c0,116.813-94.687,211.5-211.5,211.5c-116.807,0-211.5-94.687-211.5-211.5
	C38.5,133.193,133.193,38.5,250,38.5z"/>
</g></g><g transform="translate(480,240) scale(0.096,0.096)"><g transform="" style="fill: rgb(0, 0, 0);">
<path  d="M470,38.5h-47c0,0-29.157,0-66.5,0c-5.711,0-11.611,0-17.63,0c-47.461,0-102.168,0-127.37,0
	C94.65,38.5,0,133.222,0,250c0,116.765,94.65,211.5,211.5,211.5c31.48,0,83.041,0,127.37,0c6.035,0,11.932,0,17.63,0
	c37.686,0,66.5,0,66.5,0h47h30v-423H470z"/>
</g></g><g transform="translate(528,240) scale(0.096,0.096)"><g transform="" style="fill: rgb(0, 0, 0);">
<polygon points="250,38.5 0,38.5 0,461.5 250,461.5 500,461.5 500,38.5 "/>
</g></g><g transform="translate(576,240) scale(0.096,0.096)"><g transform="" style="fill: rgb(0, 0, 0);">
<polygon points="250,38.5 0,38.5 0,461.5 250,461.5 500,461.5 500,38.5 "/>
</g></g><g transform="translate(624,240) scale(0.096,0.096)"><g transform="" style="fill: rgb(0, 0, 0);">
<polygon points="250,38.5 0,38.5 0,461.5 250,461.5 500,461.5 500,38.5 "/>
</g></g><g transform="translate(672,240) scale(0.096,0.096)"><g transform="" style="fill: rgb(0, 0, 0);">
<path d="M288.5,38.5c-42.907,0-123.188,0-171.55,0c-23.857,0-39.95,0-39.95,0H59.5H30H0v423h30h29.5H77c0,0,16.216,0,39.95,0
	c51.332,0,137.84,0,171.55,0C405.301,461.5,500,366.8,500,250C500,133.191,405.301,38.5,288.5,38.5z"/>
</g></g><g transform="translate(768,240) scale(0.096,0.096)"><g transform="" style="fill: rgb(0, 0, 0);">
<path d="M250,38.5c116.813,0,211.5,94.693,211.5,211.5c0,116.813-94.687,211.5-211.5,211.5c-116.807,0-211.5-94.687-211.5-211.5
	C38.5,133.193,133.193,38.5,250,38.5z"/>
</g></g><g transform="translate(384,288) scale(0.096,0.096)"><g transform="" style="fill: rgb(0, 0, 0);">
<path d="M250,38.5c116.813,0,211.5,94.693,211.5,211.5c0,116.813-94.687,211.5-211.5,211.5c-116.807,0-211.5-94.687-211.5-211.5
	C38.5,133.193,133.193,38.5,250,38.5z"/>
</g></g><g transform="translate(480,288) scale(0.096,0.096)"><g transform="" style="fill: rgb(0, 0, 0);">
<path d="M250,38.5c116.813,0,211.5,94.693,211.5,211.5c0,116.813-94.687,211.5-211.5,211.5c-116.807,0-211.5-94.687-211.5-211.5
	C38.5,133.193,133.193,38.5,250,38.5z"/>
</g></g><g transform="translate(576,288) scale(0.096,0.096)"><g transform="" style="fill: rgb(0, 0, 0);">
<path d="M250,38.5c116.813,0,211.5,94.693,211.5,211.5c0,116.813-94.687,211.5-211.5,211.5c-116.807,0-211.5-94.687-211.5-211.5
	C38.5,133.193,133.193,38.5,250,38.5z"/>
</g></g><g transform="translate(672,288) scale(0.096,0.096)"><g transform="" style="fill: rgb(0, 0, 0);">
<path d="M250,38.5c116.813,0,211.5,94.693,211.5,211.5c0,116.813-94.687,211.5-211.5,211.5c-116.807,0-211.5-94.687-211.5-211.5
	C38.5,133.193,133.193,38.5,250,38.5z"/>
</g></g><g transform="translate(768,288) scale(0.096,0.096)"><g transform="" style="fill: rgb(0, 0, 0);">
<path d="M250,38.5c116.813,0,211.5,94.693,211.5,211.5c0,116.813-94.687,211.5-211.5,211.5c-116.807,0-211.5-94.687-211.5-211.5
	C38.5,133.193,133.193,38.5,250,38.5z"/>
</g></g><g transform="translate(384,336) scale(0.096,0.096)"><g transform="" style="fill: rgb(0, 0, 0);">
<path d="M250,38.5c116.813,0,211.5,94.693,211.5,211.5c0,116.813-94.687,211.5-211.5,211.5c-116.807,0-211.5-94.687-211.5-211.5
	C38.5,133.193,133.193,38.5,250,38.5z"/>
</g></g><g transform="translate(528,336) scale(0.096,0.096)"><g transform="" style="fill: rgb(0, 0, 0);">
<path d="M250,38.5c116.813,0,211.5,94.693,211.5,211.5c0,116.813-94.687,211.5-211.5,211.5c-116.807,0-211.5-94.687-211.5-211.5
	C38.5,133.193,133.193,38.5,250,38.5z"/>
</g></g><g transform="translate(720,336) scale(0.096,0.096)"><g transform="" style="fill: rgb(0, 0, 0);">
<path  d="M470,38.5h-47c0,0-29.157,0-66.5,0c-5.711,0-11.611,0-17.63,0c-47.461,0-102.168,0-127.37,0
	C94.65,38.5,0,133.222,0,250c0,116.765,94.65,211.5,211.5,211.5c31.48,0,83.041,0,127.37,0c6.035,0,11.932,0,17.63,0
	c37.686,0,66.5,0,66.5,0h47h30v-423H470z"/>
</g></g><g transform="translate(768,336) scale(0.096,0.096)"><g transform="" style="fill: rgb(0, 0, 0);">
<path d="M288.5,38.5c-42.907,0-123.188,0-171.55,0c-23.857,0-39.95,0-39.95,0H59.5H30H0v423h30h29.5H77c0,0,16.216,0,39.95,0
	c51.332,0,137.84,0,171.55,0C405.301,461.5,500,366.8,500,250C500,133.191,405.301,38.5,288.5,38.5z"/>
</g></g><g transform="translate(0,384) scale(0.096,0.096)"><g transform="" style="fill: rgb(0, 0, 0);">
<path d="M250,38.5c116.813,0,211.5,94.693,211.5,211.5c0,116.813-94.687,211.5-211.5,211.5c-116.807,0-211.5-94.687-211.5-211.5
	C38.5,133.193,133.193,38.5,250,38.5z"/>
</g></g><g transform="translate(288,384) scale(0.096,0.096)"><g transform="" style="fill: rgb(0, 0, 0);">
<path d="M250,38.5c116.813,0,211.5,94.693,211.5,211.5c0,116.813-94.687,211.5-211.5,211.5c-116.807,0-211.5-94.687-211.5-211.5
	C38.5,133.193,133.193,38.5,250,38.5z"/>
</g></g><g transform="translate(384,384) scale(0.096,0.096)"><g transform="" style="fill: rgb(0, 0, 0);">
<path d="M250,38.5c116.813,0,211.5,94.693,211.5,211.5c0,116.813-94.687,211.5-211.5,211.5c-116.807,0-211.5-94.687-211.5-211.5
	C38.5,133.193,133.193,38.5,250,38.5z"/>
</g></g><g transform="translate(480,384) scale(0.096,0.096)"><g transform="" style="fill: rgb(0, 0, 0);">
<path  d="M470,38.5h-47c0,0-29.157,0-66.5,0c-5.711,0-11.611,0-17.63,0c-47.461,0-102.168,0-127.37,0
	C94.65,38.5,0,133.222,0,250c0,116.765,94.65,211.5,211.5,211.5c31.48,0,83.041,0,127.37,0c6.035,0,11.932,0,17.63,0
	c37.686,0,66.5,0,66.5,0h47h30v-423H470z"/>
</g></g><g transform="translate(528,384) scale(0.096,0.096)"><g transform="" style="fill: rgb(0, 0, 0);">
<path d="M288.5,38.5c-42.907,0-123.188,0-171.55,0c-23.857,0-39.95,0-39.95,0H59.5H30H0v423h30h29.5H77c0,0,16.216,0,39.95,0
	c51.332,0,137.84,0,171.55,0C405.301,461.5,500,366.8,500,250C500,133.191,405.301,38.5,288.5,38.5z"/>
</g></g><g transform="translate(624,384) scale(0.096,0.096)"><g transform="" style="fill: rgb(0, 0, 0);">
<path  d="M470,38.5h-47c0,0-29.157,0-66.5,0c-5.711,0-11.611,0-17.63,0c-47.461,0-102.168,0-127.37,0
	C94.65,38.5,0,133.222,0,250c0,116.765,94.65,211.5,211.5,211.5c31.48,0,83.041,0,127.37,0c6.035,0,11.932,0,17.63,0
	c37.686,0,66.5,0,66.5,0h47h30v-423H470z"/>
</g></g><g transform="translate(672,384) scale(0.096,0.096)"><g transform="" style="fill: rgb(0, 0, 0);">
<polygon points="250,38.5 0,38.5 0,461.5 250,461.5 500,461.5 500,38.5 "/>
</g></g><g transform="translate(720,384) scale(0.096,0.096)"><g transform="" style="fill: rgb(0, 0, 0);">
<polygon points="250,38.5 0,38.5 0,461.5 250,461.5 500,461.5 500,38.5 "/>
</g></g><g transform="translate(768,384) scale(0.096,0.096)"><g transform="" style="fill: rgb(0, 0, 0);">
<polygon points="250,38.5 0,38.5 0,461.5 250,461.5 500,461.5 500,38.5 "/>
</g></g><g transform="translate(816,384) scale(0.096,0.096)"><g transform="" style="fill: rgb(0, 0, 0);">
<polygon points="250,38.5 0,38.5 0,461.5 250,461.5 500,461.5 500,38.5 "/>
</g></g><g transform="translate(864,384) scale(0.096,0.096)"><g transform="" style="fill: rgb(0, 0, 0);">
<path d="M288.5,38.5c-42.907,0-123.188,0-171.55,0c-23.857,0-39.95,0-39.95,0H59.5H30H0v423h30h29.5H77c0,0,16.216,0,39.95,0
	c51.332,0,137.84,0,171.55,0C405.301,461.5,500,366.8,500,250C500,133.191,405.301,38.5,288.5,38.5z"/>
</g></g><g transform="translate(1008,384) scale(0.096,0.096)"><g transform="" style="fill: rgb(0, 0, 0);">
<path  d="M470,38.5h-47c0,0-29.157,0-66.5,0c-5.711,0-11.611,0-17.63,0c-47.461,0-102.168,0-127.37,0
	C94.65,38.5,0,133.222,0,250c0,116.765,94.65,211.5,211.5,211.5c31.48,0,83.041,0,127.37,0c6.035,0,11.932,0,17.63,0
	c37.686,0,66.5,0,66.5,0h47h30v-423H470z"/>
</g></g><g transform="translate(1056,384) scale(0.096,0.096)"><g transform="" style="fill: rgb(0, 0, 0);">
<polygon points="250,38.5 0,38.5 0,461.5 250,461.5 500,461.5 500,38.5 "/>
</g></g><g transform="translate(1104,384) scale(0.096,0.096)"><g transform="" style="fill: rgb(0, 0, 0);">
<path d="M288.5,38.5c-42.907,0-123.188,0-171.55,0c-23.857,0-39.95,0-39.95,0H59.5H30H0v423h30h29.5H77c0,0,16.216,0,39.95,0
	c51.332,0,137.84,0,171.55,0C405.301,461.5,500,366.8,500,250C500,133.191,405.301,38.5,288.5,38.5z"/>
</g></g><g transform="translate(96,432) scale(0.096,0.096)"><g transform="" style="fill: rgb(0, 0, 0);">
<path  d="M470,38.5h-47c0,0-29.157,0-66.5,0c-5.711,0-11.611,0-17.63,0c-47.461,0-102.168,0-127.37,0
	C94.65,38.5,0,133.222,0,250c0,116.765,94.65,211.5,211.5,211.5c31.48,0,83.041,0,127.37,0c6.035,0,11.932,0,17.63,0
	c37.686,0,66.5,0,66.5,0h47h30v-423H470z"/>
</g></g><g transform="translate(144,432) scale(0.096,0.096)"><g transform="" style="fill: rgb(0, 0, 0);">
<polygon points="250,38.5 0,38.5 0,461.5 250,461.5 500,461.5 500,38.5 "/>
</g></g><g transform="translate(192,432) scale(0.096,0.096)"><g transform="" style="fill: rgb(0, 0, 0);">
<polygon points="250,38.5 0,38.5 0,461.5 250,461.5 500,461.5 500,38.5 "/>
</g></g><g transform="translate(240,432) scale(0.096,0.096)"><g transform="" style="fill: rgb(0, 0, 0);">
<path d="M288.5,38.5c-42.907,0-123.188,0-171.55,0c-23.857,0-39.95,0-39.95,0H59.5H30H0v423h30h29.5H77c0,0,16.216,0,39.95,0
	c51.332,0,137.84,0,171.55,0C405.301,461.5,500,366.8,500,250C500,133.191,405.301,38.5,288.5,38.5z"/>
</g></g><g transform="translate(384,432) scale(0.096,0.096)"><g transform="" style="fill: rgb(0, 0, 0);">
<path  d="M470,38.5h-47c0,0-29.157,0-66.5,0c-5.711,0-11.611,0-17.63,0c-47.461,0-102.168,0-127.37,0
	C94.65,38.5,0,133.222,0,250c0,116.765,94.65,211.5,211.5,211.5c31.48,0,83.041,0,127.37,0c6.035,0,11.932,0,17.63,0
	c37.686,0,66.5,0,66.5,0h47h30v-423H470z"/>
</g></g><g transform="translate(432,432) scale(0.096,0.096)"><g transform="" style="fill: rgb(0, 0, 0);">
<polygon points="250,38.5 0,38.5 0,461.5 250,461.5 500,461.5 500,38.5 "/>
</g></g><g transform="translate(480,432) scale(0.096,0.096)"><g transform="" style="fill: rgb(0, 0, 0);">
<path d="M288.5,38.5c-42.907,0-123.188,0-171.55,0c-23.857,0-39.95,0-39.95,0H59.5H30H0v423h30h29.5H77c0,0,16.216,0,39.95,0
	c51.332,0,137.84,0,171.55,0C405.301,461.5,500,366.8,500,250C500,133.191,405.301,38.5,288.5,38.5z"/>
</g></g><g transform="translate(672,432) scale(0.096,0.096)"><g transform="" style="fill: rgb(0, 0, 0);">
<path  d="M470,38.5h-47c0,0-29.157,0-66.5,0c-5.711,0-11.611,0-17.63,0c-47.461,0-102.168,0-127.37,0
	C94.65,38.5,0,133.222,0,250c0,116.765,94.65,211.5,211.5,211.5c31.48,0,83.041,0,127.37,0c6.035,0,11.932,0,17.63,0
	c37.686,0,66.5,0,66.5,0h47h30v-423H470z"/>
</g></g><g transform="translate(720,432) scale(0.096,0.096)"><g transform="" style="fill: rgb(0, 0, 0);">
<path d="M288.5,38.5c-42.907,0-123.188,0-171.55,0c-23.857,0-39.95,0-39.95,0H59.5H30H0v423h30h29.5H77c0,0,16.216,0,39.95,0
	c51.332,0,137.84,0,171.55,0C405.301,461.5,500,366.8,500,250C500,133.191,405.301,38.5,288.5,38.5z"/>
</g></g><g transform="translate(912,432) scale(0.096,0.096)"><g transform="" style="fill: rgb(0, 0, 0);">
<path  d="M470,38.5h-47c0,0-29.157,0-66.5,0c-5.711,0-11.611,0-17.63,0c-47.461,0-102.168,0-127.37,0
	C94.65,38.5,0,133.222,0,250c0,116.765,94.65,211.5,211.5,211.5c31.48,0,83.041,0,127.37,0c6.035,0,11.932,0,17.63,0
	c37.686,0,66.5,0,66.5,0h47h30v-423H470z"/>
</g></g><g transform="translate(960,432) scale(0.096,0.096)"><g transform="" style="fill: rgb(0, 0, 0);">
<polygon points="250,38.5 0,38.5 0,461.5 250,461.5 500,461.5 500,38.5 "/>
</g></g><g transform="translate(1008,432) scale(0.096,0.096)"><g transform="" style="fill: rgb(0, 0, 0);">
<polygon points="250,38.5 0,38.5 0,461.5 250,461.5 500,461.5 500,38.5 "/>
</g></g><g transform="translate(1056,432) scale(0.096,0.096)"><g transform="" style="fill: rgb(0, 0, 0);">
<polygon points="250,38.5 0,38.5 0,461.5 250,461.5 500,461.5 500,38.5 "/>
</g></g><g transform="translate(1104,432) scale(0.096,0.096)"><g transform="" style="fill: rgb(0, 0, 0);">
<path d="M288.5,38.5c-42.907,0-123.188,0-171.55,0c-23.857,0-39.95,0-39.95,0H59.5H30H0v423h30h29.5H77c0,0,16.216,0,39.95,0
	c51.332,0,137.84,0,171.55,0C405.301,461.5,500,366.8,500,250C500,133.191,405.301,38.5,288.5,38.5z"/>
</g></g><g transform="translate(48,480) scale(0.096,0.096)"><g transform="" style="fill: rgb(0, 0, 0);">
<path  d="M470,38.5h-47c0,0-29.157,0-66.5,0c-5.711,0-11.611,0-17.63,0c-47.461,0-102.168,0-127.37,0
	C94.65,38.5,0,133.222,0,250c0,116.765,94.65,211.5,211.5,211.5c31.48,0,83.041,0,127.37,0c6.035,0,11.932,0,17.63,0
	c37.686,0,66.5,0,66.5,0h47h30v-423H470z"/>
</g></g><g transform="translate(96,480) scale(0.096,0.096)"><g transform="" style="fill: rgb(0, 0, 0);">
<path d="M288.5,38.5c-42.907,0-123.188,0-171.55,0c-23.857,0-39.95,0-39.95,0H59.5H30H0v423h30h29.5H77c0,0,16.216,0,39.95,0
	c51.332,0,137.84,0,171.55,0C405.301,461.5,500,366.8,500,250C500,133.191,405.301,38.5,288.5,38.5z"/>
</g></g><g transform="translate(192,480) scale(0.096,0.096)"><g transform="" style="fill: rgb(0, 0, 0);">
<path  d="M470,38.5h-47c0,0-29.157,0-66.5,0c-5.711,0-11.611,0-17.63,0c-47.461,0-102.168,0-127.37,0
	C94.65,38.5,0,133.222,0,250c0,116.765,94.65,211.5,211.5,211.5c31.48,0,83.041,0,127.37,0c6.035,0,11.932,0,17.63,0
	c37.686,0,66.5,0,66.5,0h47h30v-423H470z"/>
</g></g><g transform="translate(240,480) scale(0.096,0.096)"><g transform="" style="fill: rgb(0, 0, 0);">
<polygon points="250,38.5 0,38.5 0,461.5 250,461.5 500,461.5 500,38.5 "/>
</g></g><g transform="translate(288,480) scale(0.096,0.096)"><g transform="" style="fill: rgb(0, 0, 0);">
<path d="M288.5,38.5c-42.907,0-123.188,0-171.55,0c-23.857,0-39.95,0-39.95,0H59.5H30H0v423h30h29.5H77c0,0,16.216,0,39.95,0
	c51.332,0,137.84,0,171.55,0C405.301,461.5,500,366.8,500,250C500,133.191,405.301,38.5,288.5,38.5z"/>
</g></g><g transform="translate(720,480) scale(0.096,0.096)"><g transform="" style="fill: rgb(0, 0, 0);">
<path d="M250,38.5c116.813,0,211.5,94.693,211.5,211.5c0,116.813-94.687,211.5-211.5,211.5c-116.807,0-211.5-94.687-211.5-211.5
	C38.5,133.193,133.193,38.5,250,38.5z"/>
</g></g><g transform="translate(864,480) scale(0.096,0.096)"><g transform="" style="fill: rgb(0, 0, 0);">
<path d="M250,38.5c116.813,0,211.5,94.693,211.5,211.5c0,116.813-94.687,211.5-211.5,211.5c-116.807,0-211.5-94.687-211.5-211.5
	C38.5,133.193,133.193,38.5,250,38.5z"/>
</g></g><g transform="translate(960,480) scale(0.096,0.096)"><g transform="" style="fill: rgb(0, 0, 0);">
<path  d="M470,38.5h-47c0,0-29.157,0-66.5,0c-5.711,0-11.611,0-17.63,0c-47.461,0-102.168,0-127.37,0
	C94.65,38.5,0,133.222,0,250c0,116.765,94.65,211.5,211.5,211.5c31.48,0,83.041,0,127.37,0c6.035,0,11.932,0,17.63,0
	c37.686,0,66.5,0,66.5,0h47h30v-423H470z"/>
</g></g><g transform="translate(1008,480) scale(0.096,0.096)"><g transform="" style="fill: rgb(0, 0, 0);">
<path d="M288.5,38.5c-42.907,0-123.188,0-171.55,0c-23.857,0-39.95,0-39.95,0H59.5H30H0v423h30h29.5H77c0,0,16.216,0,39.95,0
	c51.332,0,137.84,0,171.55,0C405.301,461.5,500,366.8,500,250C500,133.191,405.301,38.5,288.5,38.5z"/>
</g></g><g transform="translate(1104,480) scale(0.096,0.096)"><g transform="" style="fill: rgb(0, 0, 0);">
<path  d="M470,38.5h-47c0,0-29.157,0-66.5,0c-5.711,0-11.611,0-17.63,0c-47.461,0-102.168,0-127.37,0
	C94.65,38.5,0,133.222,0,250c0,116.765,94.65,211.5,211.5,211.5c31.48,0,83.041,0,127.37,0c6.035,0,11.932,0,17.63,0
	c37.686,0,66.5,0,66.5,0h47h30v-423H470z"/>
</g></g><g transform="translate(1152,480) scale(0.096,0.096)"><g transform="" style="fill: rgb(0, 0, 0);">
<path d="M288.5,38.5c-42.907,0-123.188,0-171.55,0c-23.857,0-39.95,0-39.95,0H59.5H30H0v423h30h29.5H77c0,0,16.216,0,39.95,0
	c51.332,0,137.84,0,171.55,0C405.301,461.5,500,366.8,500,250C500,133.191,405.301,38.5,288.5,38.5z"/>
</g></g><g transform="translate(0,528) scale(0.096,0.096)"><g transform="" style="fill: rgb(0, 0, 0);">
<path  d="M470,38.5h-47c0,0-29.157,0-66.5,0c-5.711,0-11.611,0-17.63,0c-47.461,0-102.168,0-127.37,0
	C94.65,38.5,0,133.222,0,250c0,116.765,94.65,211.5,211.5,211.5c31.48,0,83.041,0,127.37,0c6.035,0,11.932,0,17.63,0
	c37.686,0,66.5,0,66.5,0h47h30v-423H470z"/>
</g></g><g transform="translate(48,528) scale(0.096,0.096)"><g transform="" style="fill: rgb(0, 0, 0);">
<path d="M288.5,38.5c-42.907,0-123.188,0-171.55,0c-23.857,0-39.95,0-39.95,0H59.5H30H0v423h30h29.5H77c0,0,16.216,0,39.95,0
	c51.332,0,137.84,0,171.55,0C405.301,461.5,500,366.8,500,250C500,133.191,405.301,38.5,288.5,38.5z"/>
</g></g><g transform="translate(144,528) scale(0.096,0.096)"><g transform="" style="fill: rgb(0, 0, 0);">
<path d="M250,38.5c116.813,0,211.5,94.693,211.5,211.5c0,116.813-94.687,211.5-211.5,211.5c-116.807,0-211.5-94.687-211.5-211.5
	C38.5,133.193,133.193,38.5,250,38.5z"/>
</g></g><g transform="translate(336,528) scale(0.096,0.096)"><g transform="" style="fill: rgb(0, 0, 0);">
<path  d="M470,38.5h-47c0,0-29.157,0-66.5,0c-5.711,0-11.611,0-17.63,0c-47.461,0-102.168,0-127.37,0
	C94.65,38.5,0,133.222,0,250c0,116.765,94.65,211.5,211.5,211.5c31.48,0,83.041,0,127.37,0c6.035,0,11.932,0,17.63,0
	c37.686,0,66.5,0,66.5,0h47h30v-423H470z"/>
</g></g><g transform="translate(384,528) scale(0.096,0.096)"><g transform="" style="fill: rgb(0, 0, 0);">
<path d="M288.5,38.5c-42.907,0-123.188,0-171.55,0c-23.857,0-39.95,0-39.95,0H59.5H30H0v423h30h29.5H77c0,0,16.216,0,39.95,0
	c51.332,0,137.84,0,171.55,0C405.301,461.5,500,366.8,500,250C500,133.191,405.301,38.5,288.5,38.5z"/>
</g></g><g transform="translate(576,528) scale(0.096,0.096)"><g transform="" style="fill: rgb(0, 0, 0);">
<path d="M250,38.5c116.813,0,211.5,94.693,211.5,211.5c0,116.813-94.687,211.5-211.5,211.5c-116.807,0-211.5-94.687-211.5-211.5
	C38.5,133.193,133.193,38.5,250,38.5z"/>
</g></g><g transform="translate(672,528) scale(0.096,0.096)"><g transform="" style="fill: rgb(0, 0, 0);">
<path  d="M470,38.5h-47c0,0-29.157,0-66.5,0c-5.711,0-11.611,0-17.63,0c-47.461,0-102.168,0-127.37,0
	C94.65,38.5,0,133.222,0,250c0,116.765,94.65,211.5,211.5,211.5c31.48,0,83.041,0,127.37,0c6.035,0,11.932,0,17.63,0
	c37.686,0,66.5,0,66.5,0h47h30v-423H470z"/>
</g></g><g transform="translate(720,528) scale(0.096,0.096)"><g transform="" style="fill: rgb(0, 0, 0);">
<polygon points="250,38.5 0,38.5 0,461.5 250,461.5 500,461.5 500,38.5 "/>
</g></g><g transform="translate(768,528) scale(0.096,0.096)"><g transform="" style="fill: rgb(0, 0, 0);">
<polygon points="250,38.5 0,38.5 0,461.5 250,461.5 500,461.5 500,38.5 "/>
</g></g><g transform="translate(816,528) scale(0.096,0.096)"><g transform="" style="fill: rgb(0, 0, 0);">
<polygon points="250,38.5 0,38.5 0,461.5 250,461.5 500,461.5 500,38.5 "/>
</g></g><g transform="translate(864,528) scale(0.096,0.096)"><g transform="" style="fill: rgb(0, 0, 0);">
<path d="M288.5,38.5c-42.907,0-123.188,0-171.55,0c-23.857,0-39.95,0-39.95,0H59.5H30H0v423h30h29.5H77c0,0,16.216,0,39.95,0
	c51.332,0,137.84,0,171.55,0C405.301,461.5,500,366.8,500,250C500,133.191,405.301,38.5,288.5,38.5z"/>
</g></g><g transform="translate(1008,528) scale(0.096,0.096)"><g transform="" style="fill: rgb(0, 0, 0);">
<path d="M250,38.5c116.813,0,211.5,94.693,211.5,211.5c0,116.813-94.687,211.5-211.5,211.5c-116.807,0-211.5-94.687-211.5-211.5
	C38.5,133.193,133.193,38.5,250,38.5z"/>
</g></g><g transform="translate(1152,528) scale(0.096,0.096)"><g transform="" style="fill: rgb(0, 0, 0);">
<path d="M250,38.5c116.813,0,211.5,94.693,211.5,211.5c0,116.813-94.687,211.5-211.5,211.5c-116.807,0-211.5-94.687-211.5-211.5
	C38.5,133.193,133.193,38.5,250,38.5z"/>
</g></g><g transform="translate(0,576) scale(0.096,0.096)"><g transform="" style="fill: rgb(0, 0, 0);">
<path  d="M470,38.5h-47c0,0-29.157,0-66.5,0c-5.711,0-11.611,0-17.63,0c-47.461,0-102.168,0-127.37,0
	C94.65,38.5,0,133.222,0,250c0,116.765,94.65,211.5,211.5,211.5c31.48,0,83.041,0,127.37,0c6.035,0,11.932,0,17.63,0
	c37.686,0,66.5,0,66.5,0h47h30v-423H470z"/>
</g></g><g transform="translate(48,576) scale(0.096,0.096)"><g transform="" style="fill: rgb(0, 0, 0);">
<path d="M288.5,38.5c-42.907,0-123.188,0-171.55,0c-23.857,0-39.95,0-39.95,0H59.5H30H0v423h30h29.5H77c0,0,16.216,0,39.95,0
	c51.332,0,137.84,0,171.55,0C405.301,461.5,500,366.8,500,250C500,133.191,405.301,38.5,288.5,38.5z"/>
</g></g><g transform="translate(144,576) scale(0.096,0.096)"><g transform="" style="fill: rgb(0, 0, 0);">
<path d="M250,38.5c116.813,0,211.5,94.693,211.5,211.5c0,116.813-94.687,211.5-211.5,211.5c-116.807,0-211.5-94.687-211.5-211.5
	C38.5,133.193,133.193,38.5,250,38.5z"/>
</g></g><g transform="translate(240,576) scale(0.096,0.096)"><g transform="" style="fill: rgb(0, 0, 0);">
<path  d="M470,38.5h-47c0,0-29.157,0-66.5,0c-5.711,0-11.611,0-17.63,0c-47.461,0-102.168,0-127.37,0
	C94.65,38.5,0,133.222,0,250c0,116.765,94.65,211.5,211.5,211.5c31.48,0,83.041,0,127.37,0c6.035,0,11.932,0,17.63,0
	c37.686,0,66.5,0,66.5,0h47h30v-423H470z"/>
</g></g><g transform="translate(288,576) scale(0.096,0.096)"><g transform="" style="fill: rgb(0, 0, 0);">
<polygon points="250,38.5 0,38.5 0,461.5 250,461.5 500,461.5 500,38.5 "/>
</g></g><g transform="translate(336,576) scale(0.096,0.096)"><g transform="" style="fill: rgb(0, 0, 0);">
<polygon points="250,38.5 0,38.5 0,461.5 250,461.5 500,461.5 500,38.5 "/>
</g></g><g transform="translate(384,576) scale(0.096,0.096)"><g transform="" style="fill: rgb(0, 0, 0);">
<path d="M288.5,38.5c-42.907,0-123.188,0-171.55,0c-23.857,0-39.95,0-39.95,0H59.5H30H0v423h30h29.5H77c0,0,16.216,0,39.95,0
	c51.332,0,137.84,0,171.55,0C405.301,461.5,500,366.8,500,250C500,133.191,405.301,38.5,288.5,38.5z"/>
</g></g><g transform="translate(528,576) scale(0.096,0.096)"><g transform="" style="fill: rgb(0, 0, 0);">
<path  d="M470,38.5h-47c0,0-29.157,0-66.5,0c-5.711,0-11.611,0-17.63,0c-47.461,0-102.168,0-127.37,0
	C94.65,38.5,0,133.222,0,250c0,116.765,94.65,211.5,211.5,211.5c31.48,0,83.041,0,127.37,0c6.035,0,11.932,0,17.63,0
	c37.686,0,66.5,0,66.5,0h47h30v-423H470z"/>
</g></g><g transform="translate(576,576) scale(0.096,0.096)"><g transform="" style="fill: rgb(0, 0, 0);">
<path d="M288.5,38.5c-42.907,0-123.188,0-171.55,0c-23.857,0-39.95,0-39.95,0H59.5H30H0v423h30h29.5H77c0,0,16.216,0,39.95,0
	c51.332,0,137.84,0,171.55,0C405.301,461.5,500,366.8,500,250C500,133.191,405.301,38.5,288.5,38.5z"/>
</g></g><g transform="translate(768,576) scale(0.096,0.096)"><g transform="" style="fill: rgb(0, 0, 0);">
<path d="M250,38.5c116.813,0,211.5,94.693,211.5,211.5c0,116.813-94.687,211.5-211.5,211.5c-116.807,0-211.5-94.687-211.5-211.5
	C38.5,133.193,133.193,38.5,250,38.5z"/>
</g></g><g transform="translate(864,576) scale(0.096,0.096)"><g transform="" style="fill: rgb(0, 0, 0);">
<path d="M250,38.5c116.813,0,211.5,94.693,211.5,211.5c0,116.813-94.687,211.5-211.5,211.5c-116.807,0-211.5-94.687-211.5-211.5
	C38.5,133.193,133.193,38.5,250,38.5z"/>
</g></g><g transform="translate(1152,576) scale(0.096,0.096)"><g transform="" style="fill: rgb(0, 0, 0);">
<path d="M250,38.5c116.813,0,211.5,94.693,211.5,211.5c0,116.813-94.687,211.5-211.5,211.5c-116.807,0-211.5-94.687-211.5-211.5
	C38.5,133.193,133.193,38.5,250,38.5z"/>
</g></g><g transform="translate(0,624) scale(0.096,0.096)"><g transform="" style="fill: rgb(0, 0, 0);">
<path d="M250,38.5c116.813,0,211.5,94.693,211.5,211.5c0,116.813-94.687,211.5-211.5,211.5c-116.807,0-211.5-94.687-211.5-211.5
	C38.5,133.193,133.193,38.5,250,38.5z"/>
</g></g><g transform="translate(96,624) scale(0.096,0.096)"><g transform="" style="fill: rgb(0, 0, 0);">
<path  d="M470,38.5h-47c0,0-29.157,0-66.5,0c-5.711,0-11.611,0-17.63,0c-47.461,0-102.168,0-127.37,0
	C94.65,38.5,0,133.222,0,250c0,116.765,94.65,211.5,211.5,211.5c31.48,0,83.041,0,127.37,0c6.035,0,11.932,0,17.63,0
	c37.686,0,66.5,0,66.5,0h47h30v-423H470z"/>
</g></g><g transform="translate(144,624) scale(0.096,0.096)"><g transform="" style="fill: rgb(0, 0, 0);">
<path d="M288.5,38.5c-42.907,0-123.188,0-171.55,0c-23.857,0-39.95,0-39.95,0H59.5H30H0v423h30h29.5H77c0,0,16.216,0,39.95,0
	c51.332,0,137.84,0,171.55,0C405.301,461.5,500,366.8,500,250C500,133.191,405.301,38.5,288.5,38.5z"/>
</g></g><g transform="translate(336,624) scale(0.096,0.096)"><g transform="" style="fill: rgb(0, 0, 0);">
<path  d="M470,38.5h-47c0,0-29.157,0-66.5,0c-5.711,0-11.611,0-17.63,0c-47.461,0-102.168,0-127.37,0
	C94.65,38.5,0,133.222,0,250c0,116.765,94.65,211.5,211.5,211.5c31.48,0,83.041,0,127.37,0c6.035,0,11.932,0,17.63,0
	c37.686,0,66.5,0,66.5,0h47h30v-423H470z"/>
</g></g><g transform="translate(384,624) scale(0.096,0.096)"><g transform="" style="fill: rgb(0, 0, 0);">
<path d="M288.5,38.5c-42.907,0-123.188,0-171.55,0c-23.857,0-39.95,0-39.95,0H59.5H30H0v423h30h29.5H77c0,0,16.216,0,39.95,0
	c51.332,0,137.84,0,171.55,0C405.301,461.5,500,366.8,500,250C500,133.191,405.301,38.5,288.5,38.5z"/>
</g></g><g transform="translate(576,624) scale(0.096,0.096)"><g transform="" style="fill: rgb(0, 0, 0);">
<path d="M250,38.5c116.813,0,211.5,94.693,211.5,211.5c0,116.813-94.687,211.5-211.5,211.5c-116.807,0-211.5-94.687-211.5-211.5
	C38.5,133.193,133.193,38.5,250,38.5z"/>
</g></g><g transform="translate(672,624) scale(0.096,0.096)"><g transform="" style="fill: rgb(0, 0, 0);">
<path  d="M470,38.5h-47c0,0-29.157,0-66.5,0c-5.711,0-11.611,0-17.63,0c-47.461,0-102.168,0-127.37,0
	C94.65,38.5,0,133.222,0,250c0,116.765,94.65,211.5,211.5,211.5c31.48,0,83.041,0,127.37,0c6.035,0,11.932,0,17.63,0
	c37.686,0,66.5,0,66.5,0h47h30v-423H470z"/>
</g></g><g transform="translate(720,624) scale(0.096,0.096)"><g transform="" style="fill: rgb(0, 0, 0);">
<path d="M288.5,38.5c-42.907,0-123.188,0-171.55,0c-23.857,0-39.95,0-39.95,0H59.5H30H0v423h30h29.5H77c0,0,16.216,0,39.95,0
	c51.332,0,137.84,0,171.55,0C405.301,461.5,500,366.8,500,250C500,133.191,405.301,38.5,288.5,38.5z"/>
</g></g><g transform="translate(912,624) scale(0.096,0.096)"><g transform="" style="fill: rgb(0, 0, 0);">
<path d="M250,38.5c116.813,0,211.5,94.693,211.5,211.5c0,116.813-94.687,211.5-211.5,211.5c-116.807,0-211.5-94.687-211.5-211.5
	C38.5,133.193,133.193,38.5,250,38.5z"/>
</g></g><g transform="translate(1104,624) scale(0.096,0.096)"><g transform="" style="fill: rgb(0, 0, 0);">
<path d="M250,38.5c116.813,0,211.5,94.693,211.5,211.5c0,116.813-94.687,211.5-211.5,211.5c-116.807,0-211.5-94.687-211.5-211.5
	C38.5,133.193,133.193,38.5,250,38.5z"/>
</g></g><g transform="translate(0,672) scale(0.096,0.096)"><g transform="" style="fill: rgb(0, 0, 0);">
<path d="M250,38.5c116.813,0,211.5,94.693,211.5,211.5c0,116.813-94.687,211.5-211.5,211.5c-116.807,0-211.5-94.687-211.5-211.5
	C38.5,133.193,133.193,38.5,250,38.5z"/>
</g></g><g transform="translate(96,672) scale(0.096,0.096)"><g transform="" style="fill: rgb(0, 0, 0);">
<path  d="M470,38.5h-47c0,0-29.157,0-66.5,0c-5.711,0-11.611,0-17.63,0c-47.461,0-102.168,0-127.37,0
	C94.65,38.5,0,133.222,0,250c0,116.765,94.65,211.5,211.5,211.5c31.48,0,83.041,0,127.37,0c6.035,0,11.932,0,17.63,0
	c37.686,0,66.5,0,66.5,0h47h30v-423H470z"/>
</g></g><g transform="translate(144,672) scale(0.096,0.096)"><g transform="" style="fill: rgb(0, 0, 0);">
<path d="M288.5,38.5c-42.907,0-123.188,0-171.55,0c-23.857,0-39.95,0-39.95,0H59.5H30H0v423h30h29.5H77c0,0,16.216,0,39.95,0
	c51.332,0,137.84,0,171.55,0C405.301,461.5,500,366.8,500,250C500,133.191,405.301,38.5,288.5,38.5z"/>
</g></g><g transform="translate(240,672) scale(0.096,0.096)"><g transform="" style="fill: rgb(0, 0, 0);">
<path  d="M470,38.5h-47c0,0-29.157,0-66.5,0c-5.711,0-11.611,0-17.63,0c-47.461,0-102.168,0-127.37,0
	C94.65,38.5,0,133.222,0,250c0,116.765,94.65,211.5,211.5,211.5c31.48,0,83.041,0,127.37,0c6.035,0,11.932,0,17.63,0
	c37.686,0,66.5,0,66.5,0h47h30v-423H470z"/>
</g></g><g transform="translate(288,672) scale(0.096,0.096)"><g transform="" style="fill: rgb(0, 0, 0);">
<path d="M288.5,38.5c-42.907,0-123.188,0-171.55,0c-23.857,0-39.95,0-39.95,0H59.5H30H0v423h30h29.5H77c0,0,16.216,0,39.95,0
	c51.332,0,137.84,0,171.55,0C405.301,461.5,500,366.8,500,250C500,133.191,405.301,38.5,288.5,38.5z"/>
</g></g><g transform="translate(480,672) scale(0.096,0.096)"><g transform="" style="fill: rgb(0, 0, 0);">
<path d="M250,38.5c116.813,0,211.5,94.693,211.5,211.5c0,116.813-94.687,211.5-211.5,211.5c-116.807,0-211.5-94.687-211.5-211.5
	C38.5,133.193,133.193,38.5,250,38.5z"/>
</g></g><g transform="translate(720,672) scale(0.096,0.096)"><g transform="" style="fill: rgb(0, 0, 0);">
<path d="M250,38.5c116.813,0,211.5,94.693,211.5,211.5c0,116.813-94.687,211.5-211.5,211.5c-116.807,0-211.5-94.687-211.5-211.5
	C38.5,133.193,133.193,38.5,250,38.5z"/>
</g></g><g transform="translate(816,672) scale(0.096,0.096)"><g transform="" style="fill: rgb(0, 0, 0);">
<path d="M250,38.5c116.813,0,211.5,94.693,211.5,211.5c0,116.813-94.687,211.5-211.5,211.5c-116.807,0-211.5-94.687-211.5-211.5
	C38.5,133.193,133.193,38.5,250,38.5z"/>
</g></g><g transform="translate(912,672) scale(0.096,0.096)"><g transform="" style="fill: rgb(0, 0, 0);">
<path  d="M470,38.5h-47c0,0-29.157,0-66.5,0c-5.711,0-11.611,0-17.63,0c-47.461,0-102.168,0-127.37,0
	C94.65,38.5,0,133.222,0,250c0,116.765,94.65,211.5,211.5,211.5c31.48,0,83.041,0,127.37,0c6.035,0,11.932,0,17.63,0
	c37.686,0,66.5,0,66.5,0h47h30v-423H470z"/>
</g></g><g transform="translate(960,672) scale(0.096,0.096)"><g transform="" style="fill: rgb(0, 0, 0);">
<polygon points="250,38.5 0,38.5 0,461.5 250,461.5 500,461.5 500,38.5 "/>
</g></g><g transform="translate(1008,672) scale(0.096,0.096)"><g transform="" style="fill: rgb(0, 0, 0);">
<path d="M288.5,38.5c-42.907,0-123.188,0-171.55,0c-23.857,0-39.95,0-39.95,0H59.5H30H0v423h30h29.5H77c0,0,16.216,0,39.95,0
	c51.332,0,137.84,0,171.55,0C405.301,461.5,500,366.8,500,250C500,133.191,405.301,38.5,288.5,38.5z"/>
</g></g><g transform="translate(1104,672) scale(0.096,0.096)"><g transform="" style="fill: rgb(0, 0, 0);">
<path  d="M470,38.5h-47c0,0-29.157,0-66.5,0c-5.711,0-11.611,0-17.63,0c-47.461,0-102.168,0-127.37,0
	C94.65,38.5,0,133.222,0,250c0,116.765,94.65,211.5,211.5,211.5c31.48,0,83.041,0,127.37,0c6.035,0,11.932,0,17.63,0
	c37.686,0,66.5,0,66.5,0h47h30v-423H470z"/>
</g></g><g transform="translate(1152,672) scale(0.096,0.096)"><g transform="" style="fill: rgb(0, 0, 0);">
<path d="M288.5,38.5c-42.907,0-123.188,0-171.55,0c-23.857,0-39.95,0-39.95,0H59.5H30H0v423h30h29.5H77c0,0,16.216,0,39.95,0
	c51.332,0,137.84,0,171.55,0C405.301,461.5,500,366.8,500,250C500,133.191,405.301,38.5,288.5,38.5z"/>
</g></g><g transform="translate(0,720) scale(0.096,0.096)"><g transform="" style="fill: rgb(0, 0, 0);">
<path d="M250,38.5c116.813,0,211.5,94.693,211.5,211.5c0,116.813-94.687,211.5-211.5,211.5c-116.807,0-211.5-94.687-211.5-211.5
	C38.5,133.193,133.193,38.5,250,38.5z"/>
</g></g><g transform="translate(144,720) scale(0.096,0.096)"><g transform="" style="fill: rgb(0, 0, 0);">
<path d="M250,38.5c116.813,0,211.5,94.693,211.5,211.5c0,116.813-94.687,211.5-211.5,211.5c-116.807,0-211.5-94.687-211.5-211.5
	C38.5,133.193,133.193,38.5,250,38.5z"/>
</g></g><g transform="translate(336,720) scale(0.096,0.096)"><g transform="" style="fill: rgb(0, 0, 0);">
<path d="M250,38.5c116.813,0,211.5,94.693,211.5,211.5c0,116.813-94.687,211.5-211.5,211.5c-116.807,0-211.5-94.687-211.5-211.5
	C38.5,133.193,133.193,38.5,250,38.5z"/>
</g></g><g transform="translate(576,720) scale(0.096,0.096)"><g transform="" style="fill: rgb(0, 0, 0);">
<path d="M250,38.5c116.813,0,211.5,94.693,211.5,211.5c0,116.813-94.687,211.5-211.5,211.5c-116.807,0-211.5-94.687-211.5-211.5
	C38.5,133.193,133.193,38.5,250,38.5z"/>
</g></g><g transform="translate(672,720) scale(0.096,0.096)"><g transform="" style="fill: rgb(0, 0, 0);">
<path d="M250,38.5c116.813,0,211.5,94.693,211.5,211.5c0,116.813-94.687,211.5-211.5,211.5c-116.807,0-211.5-94.687-211.5-211.5
	C38.5,133.193,133.193,38.5,250,38.5z"/>
</g></g><g transform="translate(912,720) scale(0.096,0.096)"><g transform="" style="fill: rgb(0, 0, 0);">
<path d="M250,38.5c116.813,0,211.5,94.693,211.5,211.5c0,116.813-94.687,211.5-211.5,211.5c-116.807,0-211.5-94.687-211.5-211.5
	C38.5,133.193,133.193,38.5,250,38.5z"/>
</g></g><g transform="translate(1008,720) scale(0.096,0.096)"><g transform="" style="fill: rgb(0, 0, 0);">
<path  d="M470,38.5h-47c0,0-29.157,0-66.5,0c-5.711,0-11.611,0-17.63,0c-47.461,0-102.168,0-127.37,0
	C94.65,38.5,0,133.222,0,250c0,116.765,94.65,211.5,211.5,211.5c31.48,0,83.041,0,127.37,0c6.035,0,11.932,0,17.63,0
	c37.686,0,66.5,0,66.5,0h47h30v-423H470z"/>
</g></g><g transform="translate(1056,720) scale(0.096,0.096)"><g transform="" style="fill: rgb(0, 0, 0);">
<path d="M288.5,38.5c-42.907,0-123.188,0-171.55,0c-23.857,0-39.95,0-39.95,0H59.5H30H0v423h30h29.5H77c0,0,16.216,0,39.95,0
	c51.332,0,137.84,0,171.55,0C405.301,461.5,500,366.8,500,250C500,133.191,405.301,38.5,288.5,38.5z"/>
</g></g><g transform="translate(1152,720) scale(0.096,0.096)"><g transform="" style="fill: rgb(0, 0, 0);">
<path d="M250,38.5c116.813,0,211.5,94.693,211.5,211.5c0,116.813-94.687,211.5-211.5,211.5c-116.807,0-211.5-94.687-211.5-211.5
	C38.5,133.193,133.193,38.5,250,38.5z"/>
</g></g><g transform="translate(0,768) scale(0.096,0.096)"><g transform="" style="fill: rgb(0, 0, 0);">
<path d="M250,38.5c116.813,0,211.5,94.693,211.5,211.5c0,116.813-94.687,211.5-211.5,211.5c-116.807,0-211.5-94.687-211.5-211.5
	C38.5,133.193,133.193,38.5,250,38.5z"/>
</g></g><g transform="translate(96,768) scale(0.096,0.096)"><g transform="" style="fill: rgb(0, 0, 0);">
<path  d="M470,38.5h-47c0,0-29.157,0-66.5,0c-5.711,0-11.611,0-17.63,0c-47.461,0-102.168,0-127.37,0
	C94.65,38.5,0,133.222,0,250c0,116.765,94.65,211.5,211.5,211.5c31.48,0,83.041,0,127.37,0c6.035,0,11.932,0,17.63,0
	c37.686,0,66.5,0,66.5,0h47h30v-423H470z"/>
</g></g><g transform="translate(144,768) scale(0.096,0.096)"><g transform="" style="fill: rgb(0, 0, 0);">
<path d="M288.5,38.5c-42.907,0-123.188,0-171.55,0c-23.857,0-39.95,0-39.95,0H59.5H30H0v423h30h29.5H77c0,0,16.216,0,39.95,0
	c51.332,0,137.84,0,171.55,0C405.301,461.5,500,366.8,500,250C500,133.191,405.301,38.5,288.5,38.5z"/>
</g></g><g transform="translate(240,768) scale(0.096,0.096)"><g transform="" style="fill: rgb(0, 0, 0);">
<path  d="M470,38.5h-47c0,0-29.157,0-66.5,0c-5.711,0-11.611,0-17.63,0c-47.461,0-102.168,0-127.37,0
	C94.65,38.5,0,133.222,0,250c0,116.765,94.65,211.5,211.5,211.5c31.48,0,83.041,0,127.37,0c6.035,0,11.932,0,17.63,0
	c37.686,0,66.5,0,66.5,0h47h30v-423H470z"/>
</g></g><g transform="translate(288,768) scale(0.096,0.096)"><g transform="" style="fill: rgb(0, 0, 0);">
<path d="M288.5,38.5c-42.907,0-123.188,0-171.55,0c-23.857,0-39.95,0-39.95,0H59.5H30H0v423h30h29.5H77c0,0,16.216,0,39.95,0
	c51.332,0,137.84,0,171.55,0C405.301,461.5,500,366.8,500,250C500,133.191,405.301,38.5,288.5,38.5z"/>
</g></g><g transform="translate(432,768) scale(0.096,0.096)"><g transform="" style="fill: rgb(0, 0, 0);">
<path d="M250,38.5c116.813,0,211.5,94.693,211.5,211.5c0,116.813-94.687,211.5-211.5,211.5c-116.807,0-211.5-94.687-211.5-211.5
	C38.5,133.193,133.193,38.5,250,38.5z"/>
</g></g><g transform="translate(528,768) scale(0.096,0.096)"><g transform="" style="fill: rgb(0, 0, 0);">
<path d="M250,38.5c116.813,0,211.5,94.693,211.5,211.5c0,116.813-94.687,211.5-211.5,211.5c-116.807,0-211.5-94.687-211.5-211.5
	C38.5,133.193,133.193,38.5,250,38.5z"/>
</g></g><g transform="translate(624,768) scale(0.096,0.096)"><g transform="" style="fill: rgb(0, 0, 0);">
<path  d="M470,38.5h-47c0,0-29.157,0-66.5,0c-5.711,0-11.611,0-17.63,0c-47.461,0-102.168,0-127.37,0
	C94.65,38.5,0,133.222,0,250c0,116.765,94.65,211.5,211.5,211.5c31.48,0,83.041,0,127.37,0c6.035,0,11.932,0,17.63,0
	c37.686,0,66.5,0,66.5,0h47h30v-423H470z"/>
</g></g><g transform="translate(672,768) scale(0.096,0.096)"><g transform="" style="fill: rgb(0, 0, 0);">
<polygon points="250,38.5 0,38.5 0,461.5 250,461.5 500,461.5 500,38.5 "/>
</g></g><g transform="translate(720,768) scale(0.096,0.096)"><g transform="" style="fill: rgb(0, 0, 0);">
<polygon points="250,38.5 0,38.5 0,461.5 250,461.5 500,461.5 500,38.5 "/>
</g></g><g transform="translate(768,768) scale(0.096,0.096)"><g transform="" style="fill: rgb(0, 0, 0);">
<polygon points="250,38.5 0,38.5 0,461.5 250,461.5 500,461.5 500,38.5 "/>
</g></g><g transform="translate(816,768) scale(0.096,0.096)"><g transform="" style="fill: rgb(0, 0, 0);">
<polygon points="250,38.5 0,38.5 0,461.5 250,461.5 500,461.5 500,38.5 "/>
</g></g><g transform="translate(864,768) scale(0.096,0.096)"><g transform="" style="fill: rgb(0, 0, 0);">
<polygon points="250,38.5 0,38.5 0,461.5 250,461.5 500,461.5 500,38.5 "/>
</g></g><g transform="translate(912,768) scale(0.096,0.096)"><g transform="" style="fill: rgb(0, 0, 0);">
<polygon points="250,38.5 0,38.5 0,461.5 250,461.5 500,461.5 500,38.5 "/>
</g></g><g transform="translate(960,768) scale(0.096,0.096)"><g transform="" style="fill: rgb(0, 0, 0);">
<path d="M288.5,38.5c-42.907,0-123.188,0-171.55,0c-23.857,0-39.95,0-39.95,0H59.5H30H0v423h30h29.5H77c0,0,16.216,0,39.95,0
	c51.332,0,137.84,0,171.55,0C405.301,461.5,500,366.8,500,250C500,133.191,405.301,38.5,288.5,38.5z"/>
</g></g><g transform="translate(1056,768) scale(0.096,0.096)"><g transform="" style="fill: rgb(0, 0, 0);">
<path d="M250,38.5c116.813,0,211.5,94.693,211.5,211.5c0,116.813-94.687,211.5-211.5,211.5c-116.807,0-211.5-94.687-211.5-211.5
	C38.5,133.193,133.193,38.5,250,38.5z"/>
</g></g><g transform="translate(384,816) scale(0.096,0.096)"><g transform="" style="fill: rgb(0, 0, 0);">
<path d="M250,38.5c116.813,0,211.5,94.693,211.5,211.5c0,116.813-94.687,211.5-211.5,211.5c-116.807,0-211.5-94.687-211.5-211.5
	C38.5,133.193,133.193,38.5,250,38.5z"/>
</g></g><g transform="translate(480,816) scale(0.096,0.096)"><g transform="" style="fill: rgb(0, 0, 0);">
<path  d="M470,38.5h-47c0,0-29.157,0-66.5,0c-5.711,0-11.611,0-17.63,0c-47.461,0-102.168,0-127.37,0
	C94.65,38.5,0,133.222,0,250c0,116.765,94.65,211.5,211.5,211.5c31.48,0,83.041,0,127.37,0c6.035,0,11.932,0,17.63,0
	c37.686,0,66.5,0,66.5,0h47h30v-423H470z"/>
</g></g><g transform="translate(528,816) scale(0.096,0.096)"><g transform="" style="fill: rgb(0, 0, 0);">
<path d="M288.5,38.5c-42.907,0-123.188,0-171.55,0c-23.857,0-39.95,0-39.95,0H59.5H30H0v423h30h29.5H77c0,0,16.216,0,39.95,0
	c51.332,0,137.84,0,171.55,0C405.301,461.5,500,366.8,500,250C500,133.191,405.301,38.5,288.5,38.5z"/>
</g></g><g transform="translate(672,816) scale(0.096,0.096)"><g transform="" style="fill: rgb(0, 0, 0);">
<path  d="M470,38.5h-47c0,0-29.157,0-66.5,0c-5.711,0-11.611,0-17.63,0c-47.461,0-102.168,0-127.37,0
	C94.65,38.5,0,133.222,0,250c0,116.765,94.65,211.5,211.5,211.5c31.48,0,83.041,0,127.37,0c6.035,0,11.932,0,17.63,0
	c37.686,0,66.5,0,66.5,0h47h30v-423H470z"/>
</g></g><g transform="translate(720,816) scale(0.096,0.096)"><g transform="" style="fill: rgb(0, 0, 0);">
<polygon points="250,38.5 0,38.5 0,461.5 250,461.5 500,461.5 500,38.5 "/>
</g></g><g transform="translate(768,816) scale(0.096,0.096)"><g transform="" style="fill: rgb(0, 0, 0);">
<path d="M288.5,38.5c-42.907,0-123.188,0-171.55,0c-23.857,0-39.95,0-39.95,0H59.5H30H0v423h30h29.5H77c0,0,16.216,0,39.95,0
	c51.332,0,137.84,0,171.55,0C405.301,461.5,500,366.8,500,250C500,133.191,405.301,38.5,288.5,38.5z"/>
</g></g><g transform="translate(960,816) scale(0.096,0.096)"><g transform="" style="fill: rgb(0, 0, 0);">
<path d="M250,38.5c116.813,0,211.5,94.693,211.5,211.5c0,116.813-94.687,211.5-211.5,211.5c-116.807,0-211.5-94.687-211.5-211.5
	C38.5,133.193,133.193,38.5,250,38.5z"/>
</g></g><g transform="translate(432,864) scale(0.096,0.096)"><g transform="" style="fill: rgb(0, 0, 0);">
<path d="M250,38.5c116.813,0,211.5,94.693,211.5,211.5c0,116.813-94.687,211.5-211.5,211.5c-116.807,0-211.5-94.687-211.5-211.5
	C38.5,133.193,133.193,38.5,250,38.5z"/>
</g></g><g transform="translate(528,864) scale(0.096,0.096)"><g transform="" style="fill: rgb(0, 0, 0);">
<path d="M250,38.5c116.813,0,211.5,94.693,211.5,211.5c0,116.813-94.687,211.5-211.5,211.5c-116.807,0-211.5-94.687-211.5-211.5
	C38.5,133.193,133.193,38.5,250,38.5z"/>
</g></g><g transform="translate(624,864) scale(0.096,0.096)"><g transform="" style="fill: rgb(0, 0, 0);">
<path  d="M470,38.5h-47c0,0-29.157,0-66.5,0c-5.711,0-11.611,0-17.63,0c-47.461,0-102.168,0-127.37,0
	C94.65,38.5,0,133.222,0,250c0,116.765,94.65,211.5,211.5,211.5c31.48,0,83.041,0,127.37,0c6.035,0,11.932,0,17.63,0
	c37.686,0,66.5,0,66.5,0h47h30v-423H470z"/>
</g></g><g transform="translate(672,864) scale(0.096,0.096)"><g transform="" style="fill: rgb(0, 0, 0);">
<path d="M288.5,38.5c-42.907,0-123.188,0-171.55,0c-23.857,0-39.95,0-39.95,0H59.5H30H0v423h30h29.5H77c0,0,16.216,0,39.95,0
	c51.332,0,137.84,0,171.55,0C405.301,461.5,500,366.8,500,250C500,133.191,405.301,38.5,288.5,38.5z"/>
</g></g><g transform="translate(768,864) scale(0.096,0.096)"><g transform="" style="fill: rgb(0, 0, 0);">
<path d="M250,38.5c116.813,0,211.5,94.693,211.5,211.5c0,116.813-94.687,211.5-211.5,211.5c-116.807,0-211.5-94.687-211.5-211.5
	C38.5,133.193,133.193,38.5,250,38.5z"/>
</g></g><g transform="translate(864,864) scale(0.096,0.096)"><g transform="" style="fill: rgb(0, 0, 0);">
<path d="M250,38.5c116.813,0,211.5,94.693,211.5,211.5c0,116.813-94.687,211.5-211.5,211.5c-116.807,0-211.5-94.687-211.5-211.5
	C38.5,133.193,133.193,38.5,250,38.5z"/>
</g></g><g transform="translate(960,864) scale(0.096,0.096)"><g transform="" style="fill: rgb(0, 0, 0);">
<path d="M250,38.5c116.813,0,211.5,94.693,211.5,211.5c0,116.813-94.687,211.5-211.5,211.5c-116.807,0-211.5-94.687-211.5-211.5
	C38.5,133.193,133.193,38.5,250,38.5z"/>
</g></g><g transform="translate(1152,864) scale(0.096,0.096)"><g transform="" style="fill: rgb(0, 0, 0);">
<path d="M250,38.5c116.813,0,211.5,94.693,211.5,211.5c0,116.813-94.687,211.5-211.5,211.5c-116.807,0-211.5-94.687-211.5-211.5
	C38.5,133.193,133.193,38.5,250,38.5z"/>
</g></g><g transform="translate(432,912) scale(0.096,0.096)"><g transform="" style="fill: rgb(0, 0, 0);">
<path  d="M470,38.5h-47c0,0-29.157,0-66.5,0c-5.711,0-11.611,0-17.63,0c-47.461,0-102.168,0-127.37,0
	C94.65,38.5,0,133.222,0,250c0,116.765,94.65,211.5,211.5,211.5c31.48,0,83.041,0,127.37,0c6.035,0,11.932,0,17.63,0
	c37.686,0,66.5,0,66.5,0h47h30v-423H470z"/>
</g></g><g transform="translate(480,912) scale(0.096,0.096)"><g transform="" style="fill: rgb(0, 0, 0);">
<path d="M288.5,38.5c-42.907,0-123.188,0-171.55,0c-23.857,0-39.95,0-39.95,0H59.5H30H0v423h30h29.5H77c0,0,16.216,0,39.95,0
	c51.332,0,137.84,0,171.55,0C405.301,461.5,500,366.8,500,250C500,133.191,405.301,38.5,288.5,38.5z"/>
</g></g><g transform="translate(720,912) scale(0.096,0.096)"><g transform="" style="fill: rgb(0, 0, 0);">
<path  d="M470,38.5h-47c0,0-29.157,0-66.5,0c-5.711,0-11.611,0-17.63,0c-47.461,0-102.168,0-127.37,0
	C94.65,38.5,0,133.222,0,250c0,116.765,94.65,211.5,211.5,211.5c31.48,0,83.041,0,127.37,0c6.035,0,11.932,0,17.63,0
	c37.686,0,66.5,0,66.5,0h47h30v-423H470z"/>
</g></g><g transform="translate(768,912) scale(0.096,0.096)"><g transform="" style="fill: rgb(0, 0, 0);">
<path d="M288.5,38.5c-42.907,0-123.188,0-171.55,0c-23.857,0-39.95,0-39.95,0H59.5H30H0v423h30h29.5H77c0,0,16.216,0,39.95,0
	c51.332,0,137.84,0,171.55,0C405.301,461.5,500,366.8,500,250C500,133.191,405.301,38.5,288.5,38.5z"/>
</g></g><g transform="translate(960,912) scale(0.096,0.096)"><g transform="" style="fill: rgb(0, 0, 0);">
<path d="M250,38.5c116.813,0,211.5,94.693,211.5,211.5c0,116.813-94.687,211.5-211.5,211.5c-116.807,0-211.5-94.687-211.5-211.5
	C38.5,133.193,133.193,38.5,250,38.5z"/>
</g></g><g transform="translate(432,960) scale(0.096,0.096)"><g transform="" style="fill: rgb(0, 0, 0);">
<path d="M250,38.5c116.813,0,211.5,94.693,211.5,211.5c0,116.813-94.687,211.5-211.5,211.5c-116.807,0-211.5-94.687-211.5-211.5
	C38.5,133.193,133.193,38.5,250,38.5z"/>
</g></g><g transform="translate(576,960) scale(0.096,0.096)"><g transform="" style="fill: rgb(0, 0, 0);">
<path  d="M470,38.5h-47c0,0-29.157,0-66.5,0c-5.711,0-11.611,0-17.63,0c-47.461,0-102.168,0-127.37,0
	C94.65,38.5,0,133.222,0,250c0,116.765,94.65,211.5,211.5,211.5c31.48,0,83.041,0,127.37,0c6.035,0,11.932,0,17.63,0
	c37.686,0,66.5,0,66.5,0h47h30v-423H470z"/>
</g></g><g transform="translate(624,960) scale(0.096,0.096)"><g transform="" style="fill: rgb(0, 0, 0);">
<path d="M288.5,38.5c-42.907,0-123.188,0-171.55,0c-23.857,0-39.95,0-39.95,0H59.5H30H0v423h30h29.5H77c0,0,16.216,0,39.95,0
	c51.332,0,137.84,0,171.55,0C405.301,461.5,500,366.8,500,250C500,133.191,405.301,38.5,288.5,38.5z"/>
</g></g><g transform="translate(720,960) scale(0.096,0.096)"><g transform="" style="fill: rgb(0, 0, 0);">
<path  d="M470,38.5h-47c0,0-29.157,0-66.5,0c-5.711,0-11.611,0-17.63,0c-47.461,0-102.168,0-127.37,0
	C94.65,38.5,0,133.222,0,250c0,116.765,94.65,211.5,211.5,211.5c31.48,0,83.041,0,127.37,0c6.035,0,11.932,0,17.63,0
	c37.686,0,66.5,0,66.5,0h47h30v-423H470z"/>
</g></g><g transform="translate(768,960) scale(0.096,0.096)"><g transform="" style="fill: rgb(0, 0, 0);">
<polygon points="250,38.5 0,38.5 0,461.5 250,461.5 500,461.5 500,38.5 "/>
</g></g><g transform="translate(816,960) scale(0.096,0.096)"><g transform="" style="fill: rgb(0, 0, 0);">
<polygon points="250,38.5 0,38.5 0,461.5 250,461.5 500,461.5 500,38.5 "/>
</g></g><g transform="translate(864,960) scale(0.096,0.096)"><g transform="" style="fill: rgb(0, 0, 0);">
<polygon points="250,38.5 0,38.5 0,461.5 250,461.5 500,461.5 500,38.5 "/>
</g></g><g transform="translate(912,960) scale(0.096,0.096)"><g transform="" style="fill: rgb(0, 0, 0);">
<polygon points="250,38.5 0,38.5 0,461.5 250,461.5 500,461.5 500,38.5 "/>
</g></g><g transform="translate(960,960) scale(0.096,0.096)"><g transform="" style="fill: rgb(0, 0, 0);">
<path d="M288.5,38.5c-42.907,0-123.188,0-171.55,0c-23.857,0-39.95,0-39.95,0H59.5H30H0v423h30h29.5H77c0,0,16.216,0,39.95,0
	c51.332,0,137.84,0,171.55,0C405.301,461.5,500,366.8,500,250C500,133.191,405.301,38.5,288.5,38.5z"/>
</g></g><g transform="translate(1056,960) scale(0.096,0.096)"><g transform="" style="fill: rgb(0, 0, 0);">
<path d="M250,38.5c116.813,0,211.5,94.693,211.5,211.5c0,116.813-94.687,211.5-211.5,211.5c-116.807,0-211.5-94.687-211.5-211.5
	C38.5,133.193,133.193,38.5,250,38.5z"/>
</g></g><g transform="translate(432,1008) scale(0.096,0.096)"><g transform="" style="fill: rgb(0, 0, 0);">
<path  d="M470,38.5h-47c0,0-29.157,0-66.5,0c-5.711,0-11.611,0-17.63,0c-47.461,0-102.168,0-127.37,0
	C94.65,38.5,0,133.222,0,250c0,116.765,94.65,211.5,211.5,211.5c31.48,0,83.041,0,127.37,0c6.035,0,11.932,0,17.63,0
	c37.686,0,66.5,0,66.5,0h47h30v-423H470z"/>
</g></g><g transform="translate(480,1008) scale(0.096,0.096)"><g transform="" style="fill: rgb(0, 0, 0);">
<polygon points="250,38.5 0,38.5 0,461.5 250,461.5 500,461.5 500,38.5 "/>
</g></g><g transform="translate(528,1008) scale(0.096,0.096)"><g transform="" style="fill: rgb(0, 0, 0);">
<path d="M288.5,38.5c-42.907,0-123.188,0-171.55,0c-23.857,0-39.95,0-39.95,0H59.5H30H0v423h30h29.5H77c0,0,16.216,0,39.95,0
	c51.332,0,137.84,0,171.55,0C405.301,461.5,500,366.8,500,250C500,133.191,405.301,38.5,288.5,38.5z"/>
</g></g><g transform="translate(624,1008) scale(0.096,0.096)"><g transform="" style="fill: rgb(0, 0, 0);">
<path  d="M470,38.5h-47c0,0-29.157,0-66.5,0c-5.711,0-11.611,0-17.63,0c-47.461,0-102.168,0-127.37,0
	C94.65,38.5,0,133.222,0,250c0,116.765,94.65,211.5,211.5,211.5c31.48,0,83.041,0,127.37,0c6.035,0,11.932,0,17.63,0
	c37.686,0,66.5,0,66.5,0h47h30v-423H470z"/>
</g></g><g transform="translate(672,1008) scale(0.096,0.096)"><g transform="" style="fill: rgb(0, 0, 0);">
<polygon points="250,38.5 0,38.5 0,461.5 250,461.5 500,461.5 500,38.5 "/>
</g></g><g transform="translate(720,1008) scale(0.096,0.096)"><g transform="" style="fill: rgb(0, 0, 0);">
<polygon points="250,38.5 0,38.5 0,461.5 250,461.5 500,461.5 500,38.5 "/>
</g></g><g transform="translate(768,1008) scale(0.096,0.096)"><g transform="" style="fill: rgb(0, 0, 0);">
<polygon points="250,38.5 0,38.5 0,461.5 250,461.5 500,461.5 500,38.5 "/>
</g></g><g transform="translate(816,1008) scale(0.096,0.096)"><g transform="" style="fill: rgb(0, 0, 0);">
<polygon points="250,38.5 0,38.5 0,461.5 250,461.5 500,461.5 500,38.5 "/>
</g></g><g transform="translate(864,1008) scale(0.096,0.096)"><g transform="" style="fill: rgb(0, 0, 0);">
<path d="M288.5,38.5c-42.907,0-123.188,0-171.55,0c-23.857,0-39.95,0-39.95,0H59.5H30H0v423h30h29.5H77c0,0,16.216,0,39.95,0
	c51.332,0,137.84,0,171.55,0C405.301,461.5,500,366.8,500,250C500,133.191,405.301,38.5,288.5,38.5z"/>
</g></g><g transform="translate(1104,1008) scale(0.096,0.096)"><g transform="" style="fill: rgb(0, 0, 0);">
<path  d="M470,38.5h-47c0,0-29.157,0-66.5,0c-5.711,0-11.611,0-17.63,0c-47.461,0-102.168,0-127.37,0
	C94.65,38.5,0,133.222,0,250c0,116.765,94.65,211.5,211.5,211.5c31.48,0,83.041,0,127.37,0c6.035,0,11.932,0,17.63,0
	c37.686,0,66.5,0,66.5,0h47h30v-423H470z"/>
</g></g><g transform="translate(1152,1008) scale(0.096,0.096)"><g transform="" style="fill: rgb(0, 0, 0);">
<path d="M288.5,38.5c-42.907,0-123.188,0-171.55,0c-23.857,0-39.95,0-39.95,0H59.5H30H0v423h30h29.5H77c0,0,16.216,0,39.95,0
	c51.332,0,137.84,0,171.55,0C405.301,461.5,500,366.8,500,250C500,133.191,405.301,38.5,288.5,38.5z"/>
</g></g><g transform="translate(624,1056) scale(0.096,0.096)"><g transform="" style="fill: rgb(0, 0, 0);">
<path  d="M470,38.5h-47c0,0-29.157,0-66.5,0c-5.711,0-11.611,0-17.63,0c-47.461,0-102.168,0-127.37,0
	C94.65,38.5,0,133.222,0,250c0,116.765,94.65,211.5,211.5,211.5c31.48,0,83.041,0,127.37,0c6.035,0,11.932,0,17.63,0
	c37.686,0,66.5,0,66.5,0h47h30v-423H470z"/>
</g></g><g transform="translate(672,1056) scale(0.096,0.096)"><g transform="" style="fill: rgb(0, 0, 0);">
<polygon points="250,38.5 0,38.5 0,461.5 250,461.5 500,461.5 500,38.5 "/>
</g></g><g transform="translate(720,1056) scale(0.096,0.096)"><g transform="" style="fill: rgb(0, 0, 0);">
<polygon points="250,38.5 0,38.5 0,461.5 250,461.5 500,461.5 500,38.5 "/>
</g></g><g transform="translate(768,1056) scale(0.096,0.096)"><g transform="" style="fill: rgb(0, 0, 0);">
<path d="M288.5,38.5c-42.907,0-123.188,0-171.55,0c-23.857,0-39.95,0-39.95,0H59.5H30H0v423h30h29.5H77c0,0,16.216,0,39.95,0
	c51.332,0,137.84,0,171.55,0C405.301,461.5,500,366.8,500,250C500,133.191,405.301,38.5,288.5,38.5z"/>
</g></g><g transform="translate(1008,1056) scale(0.096,0.096)"><g transform="" style="fill: rgb(0, 0, 0);">
<path  d="M470,38.5h-47c0,0-29.157,0-66.5,0c-5.711,0-11.611,0-17.63,0c-47.461,0-102.168,0-127.37,0
	C94.65,38.5,0,133.222,0,250c0,116.765,94.65,211.5,211.5,211.5c31.48,0,83.041,0,127.37,0c6.035,0,11.932,0,17.63,0
	c37.686,0,66.5,0,66.5,0h47h30v-423H470z"/>
</g></g><g transform="translate(1056,1056) scale(0.096,0.096)"><g transform="" style="fill: rgb(0, 0, 0);">
<path d="M288.5,38.5c-42.907,0-123.188,0-171.55,0c-23.857,0-39.95,0-39.95,0H59.5H30H0v423h30h29.5H77c0,0,16.216,0,39.95,0
	c51.332,0,137.84,0,171.55,0C405.301,461.5,500,366.8,500,250C500,133.191,405.301,38.5,288.5,38.5z"/>
</g></g><g transform="translate(1152,1056) scale(0.096,0.096)"><g transform="" style="fill: rgb(0, 0, 0);">
<path d="M250,38.5c116.813,0,211.5,94.693,211.5,211.5c0,116.813-94.687,211.5-211.5,211.5c-116.807,0-211.5-94.687-211.5-211.5
	C38.5,133.193,133.193,38.5,250,38.5z"/>
</g></g><g transform="translate(480,1104) scale(0.096,0.096)"><g transform="" style="fill: rgb(0, 0, 0);">
<path  d="M470,38.5h-47c0,0-29.157,0-66.5,0c-5.711,0-11.611,0-17.63,0c-47.461,0-102.168,0-127.37,0
	C94.65,38.5,0,133.222,0,250c0,116.765,94.65,211.5,211.5,211.5c31.48,0,83.041,0,127.37,0c6.035,0,11.932,0,17.63,0
	c37.686,0,66.5,0,66.5,0h47h30v-423H470z"/>
</g></g><g transform="translate(528,1104) scale(0.096,0.096)"><g transform="" style="fill: rgb(0, 0, 0);">
<polygon points="250,38.5 0,38.5 0,461.5 250,461.5 500,461.5 500,38.5 "/>
</g></g><g transform="translate(576,1104) scale(0.096,0.096)"><g transform="" style="fill: rgb(0, 0, 0);">
<path d="M288.5,38.5c-42.907,0-123.188,0-171.55,0c-23.857,0-39.95,0-39.95,0H59.5H30H0v423h30h29.5H77c0,0,16.216,0,39.95,0
	c51.332,0,137.84,0,171.55,0C405.301,461.5,500,366.8,500,250C500,133.191,405.301,38.5,288.5,38.5z"/>
</g></g><g transform="translate(672,1104) scale(0.096,0.096)"><g transform="" style="fill: rgb(0, 0, 0);">
<path d="M250,38.5c116.813,0,211.5,94.693,211.5,211.5c0,116.813-94.687,211.5-211.5,211.5c-116.807,0-211.5-94.687-211.5-211.5
	C38.5,133.193,133.193,38.5,250,38.5z"/>
</g></g><g transform="translate(768,1104) scale(0.096,0.096)"><g transform="" style="fill: rgb(0, 0, 0);">
<path  d="M470,38.5h-47c0,0-29.157,0-66.5,0c-5.711,0-11.611,0-17.63,0c-47.461,0-102.168,0-127.37,0
	C94.65,38.5,0,133.222,0,250c0,116.765,94.65,211.5,211.5,211.5c31.48,0,83.041,0,127.37,0c6.035,0,11.932,0,17.63,0
	c37.686,0,66.5,0,66.5,0h47h30v-423H470z"/>
</g></g><g transform="translate(816,1104) scale(0.096,0.096)"><g transform="" style="fill: rgb(0, 0, 0);">
<polygon points="250,38.5 0,38.5 0,461.5 250,461.5 500,461.5 500,38.5 "/>
</g></g><g transform="translate(864,1104) scale(0.096,0.096)"><g transform="" style="fill: rgb(0, 0, 0);">
<polygon points="250,38.5 0,38.5 0,461.5 250,461.5 500,461.5 500,38.5 "/>
</g></g><g transform="translate(912,1104) scale(0.096,0.096)"><g transform="" style="fill: rgb(0, 0, 0);">
<polygon points="250,38.5 0,38.5 0,461.5 250,461.5 500,461.5 500,38.5 "/>
</g></g><g transform="translate(960,1104) scale(0.096,0.096)"><g transform="" style="fill: rgb(0, 0, 0);">
<path d="M288.5,38.5c-42.907,0-123.188,0-171.55,0c-23.857,0-39.95,0-39.95,0H59.5H30H0v423h30h29.5H77c0,0,16.216,0,39.95,0
	c51.332,0,137.84,0,171.55,0C405.301,461.5,500,366.8,500,250C500,133.191,405.301,38.5,288.5,38.5z"/>
</g></g><g transform="translate(1152,1104) scale(0.096,0.096)"><g transform="" style="fill: rgb(0, 0, 0);">
<path d="M250,38.5c116.813,0,211.5,94.693,211.5,211.5c0,116.813-94.687,211.5-211.5,211.5c-116.807,0-211.5-94.687-211.5-211.5
	C38.5,133.193,133.193,38.5,250,38.5z"/>
</g></g><g transform="translate(384,1152) scale(0.096,0.096)"><g transform="" style="fill: rgb(0, 0, 0);">
<path d="M250,38.5c116.813,0,211.5,94.693,211.5,211.5c0,116.813-94.687,211.5-211.5,211.5c-116.807,0-211.5-94.687-211.5-211.5
	C38.5,133.193,133.193,38.5,250,38.5z"/>
</g></g><g transform="translate(480,1152) scale(0.096,0.096)"><g transform="" style="fill: rgb(0, 0, 0);">
<path d="M250,38.5c116.813,0,211.5,94.693,211.5,211.5c0,116.813-94.687,211.5-211.5,211.5c-116.807,0-211.5-94.687-211.5-211.5
	C38.5,133.193,133.193,38.5,250,38.5z"/>
</g></g><g transform="translate(576,1152) scale(0.096,0.096)"><g transform="" style="fill: rgb(0, 0, 0);">
<path d="M250,38.5c116.813,0,211.5,94.693,211.5,211.5c0,116.813-94.687,211.5-211.5,211.5c-116.807,0-211.5-94.687-211.5-211.5
	C38.5,133.193,133.193,38.5,250,38.5z"/>
</g></g><g transform="translate(768,1152) scale(0.096,0.096)"><g transform="" style="fill: rgb(0, 0, 0);">
<path  d="M470,38.5h-47c0,0-29.157,0-66.5,0c-5.711,0-11.611,0-17.63,0c-47.461,0-102.168,0-127.37,0
	C94.65,38.5,0,133.222,0,250c0,116.765,94.65,211.5,211.5,211.5c31.48,0,83.041,0,127.37,0c6.035,0,11.932,0,17.63,0
	c37.686,0,66.5,0,66.5,0h47h30v-423H470z"/>
</g></g><g transform="translate(816,1152) scale(0.096,0.096)"><g transform="" style="fill: rgb(0, 0, 0);">
<polygon points="250,38.5 0,38.5 0,461.5 250,461.5 500,461.5 500,38.5 "/>
</g></g><g transform="translate(864,1152) scale(0.096,0.096)"><g transform="" style="fill: rgb(0, 0, 0);">
<path d="M288.5,38.5c-42.907,0-123.188,0-171.55,0c-23.857,0-39.95,0-39.95,0H59.5H30H0v423h30h29.5H77c0,0,16.216,0,39.95,0
	c51.332,0,137.84,0,171.55,0C405.301,461.5,500,366.8,500,250C500,133.191,405.301,38.5,288.5,38.5z"/>
</g></g><g transform="translate(1008,1152) scale(0.096,0.096)"><g transform="" style="fill: rgb(0, 0, 0);">
<path d="M250,38.5c116.813,0,211.5,94.693,211.5,211.5c0,116.813-94.687,211.5-211.5,211.5c-116.807,0-211.5-94.687-211.5-211.5
	C38.5,133.193,133.193,38.5,250,38.5z"/>
</g></g><g transform="translate(1152,1152) scale(0.096,0.096)"><g transform="" style="fill: rgb(0, 0, 0);">
<path d="M250,38.5c116.813,0,211.5,94.693,211.5,211.5c0,116.813-94.687,211.5-211.5,211.5c-116.807,0-211.5-94.687-211.5-211.5
	C38.5,133.193,133.193,38.5,250,38.5z"/>
</g></g><g transform="translate(0,0) scale(3.36, 3.36)"><g transform="" style="fill: rgb(0, 0, 0);">
<g>
	<rect x="15" y="15" style="fill:none;" width="70" height="70"/>
	<path d="M85,0H15H0v15v70v15h15h70h15V85V15V0H85z M85,85H15V15h70V85z"/>
</g>
</g></g><g transform="translate(864,0) scale(3.36, 3.36)"><g transform="" style="fill: rgb(0, 0, 0);">
<g>
	<rect x="15" y="15" style="fill:none;" width="70" height="70"/>
	<path d="M85,0H15H0v15v70v15h15h70h15V85V15V0H85z M85,85H15V15h70V85z"/>
</g>
</g></g><g transform="translate(0,864) scale(3.36, 3.36)"><g transform="" style="fill: rgb(0, 0, 0);">
<g>
	<rect x="15" y="15" style="fill:none;" width="70" height="70"/>
	<path d="M85,0H15H0v15v70v15h15h70h15V85V15V0H85z M85,85H15V15h70V85z"/>
</g>
</g></g><g transform="translate(96,96) scale(1.44, 1.44)"><g transform="" style="fill: rgb(0, 0, 0);">
<rect width="100" height="100"/>
</g></g><g transform="translate(960,96) scale(1.44, 1.44)"><g transform="" style="fill: rgb(0, 0, 0);">
<rect width="100" height="100"/>
</g></g><g transform="translate(96,960) scale(1.44, 1.44)"><g transform="" style="fill: rgb(0, 0, 0);">
<rect width="100" height="100"/>
</g></g></g></svg>